<svg preserveAspectRatio="none" overflow="visible" style="display: block;" width="90" height="90" viewBox="0 0 90 90" fill="none" xmlns="http://www.w3.org/2000/svg">
<g id="cryptography 1" clip-path="url(#clip0_0_82)">
<g id="Group">
<path id="Vector" d="M45 67.2363C44.2722 67.2363 43.6816 67.8262 43.6816 68.5547V86.2475C43.6816 86.976 44.2722 87.5658 45 87.5658C45.7278 87.5658 46.3184 86.976 46.3184 86.2475V68.5547C46.3184 67.8262 45.7278 67.2363 45 67.2363Z" fill="#4380A0"/>
<path id="Vector_2" d="M45 3.62823C44.2722 3.62823 43.6816 4.21875 43.6816 4.94659V19.3895C43.6816 20.1173 44.2722 20.7079 45 20.7079C45.7278 20.7079 46.3184 20.1173 46.3184 19.3895V4.94659C46.3184 4.21875 45.7278 3.62823 45 3.62823Z" fill="#4380A0"/>
<path id="Vector_3" d="M89.6141 11.4258L86.3532 8.1649V1.31836C86.3532 0.589825 85.7634 -3.59118e-06 85.0349 -3.59118e-06C84.307 -3.59118e-06 83.7165 0.589825 83.7165 1.31836V8.71147C83.7165 9.06097 83.8559 9.39605 84.1031 9.64393L87.3633 12.9041V36.7108L80.3925 43.6816H70.8131C70.0845 43.6816 69.4947 44.2715 69.4947 45C69.4947 45.7285 70.0845 46.3184 70.8131 46.3184H80.9383C81.2878 46.3184 81.6229 46.1797 81.8701 45.9325L89.6134 38.1892C89.8613 37.942 90 37.6062 90 37.2567V12.3582C90 12.0081 89.8613 11.673 89.6141 11.4258Z" fill="#4380A0"/>
<path id="Vector_4" d="M65.9743 32.7564C66.2318 33.0139 66.5696 33.1423 66.9067 33.1423C67.2439 33.1423 67.5817 33.0139 67.8392 32.7564L75.6512 24.9438C75.899 24.6966 76.0377 24.3615 76.0377 24.0113V7.51739C76.0377 6.78886 75.4472 6.19903 74.7194 6.19903C73.9915 6.19903 73.401 6.78886 73.401 7.51739V23.4654L65.9743 30.8915C65.46 31.4065 65.46 32.2414 65.9743 32.7564Z" fill="#4380A0"/>
<path id="Vector_5" d="M63.674 15.1083V29.5889C63.674 30.3168 64.2645 30.9073 64.9924 30.9073C65.7209 30.9073 66.3107 30.3168 66.3107 29.5889V14.5624C66.3107 14.2129 66.172 13.8778 65.9248 13.6299L61.2653 8.97034V4.50439C61.2653 3.77586 60.6747 3.18603 59.9469 3.18603C59.2191 3.18603 58.6285 3.77586 58.6285 4.50439V9.51691C58.6285 9.86641 58.7672 10.2015 59.0144 10.4494L63.674 15.1083Z" fill="#4380A0"/>
<path id="Vector_6" d="M30.7432 14.4951V25.3276C30.7432 26.0554 31.3337 26.646 32.0615 26.646C32.7894 26.646 33.3799 26.0554 33.3799 25.3276V13.9492C33.3799 13.5997 33.2412 13.2646 32.9933 13.0167L29.1131 9.1365V4.50439C29.1131 3.77586 28.5233 3.18603 27.7947 3.18603C27.0669 3.18603 26.4764 3.77586 26.4764 4.50439V9.68307C26.4764 10.0326 26.6151 10.3677 26.8629 10.6149L30.7432 14.4951Z" fill="#4380A0"/>
<path id="Vector_7" d="M25.4004 45C25.4004 44.2715 24.8099 43.6816 24.082 43.6816H8.36334L2.63672 37.955V19.4293L6.68724 15.3788C6.93443 15.1316 7.07313 14.7965 7.07313 14.4463V4.50439C7.07313 3.77586 6.4833 3.18603 5.75477 3.18603C5.02693 3.18603 4.43641 3.77586 4.43641 4.50439V13.9005L0.385891 17.951C0.138699 18.1982 -3.59118e-06 18.5332 -3.59118e-06 18.8834V38.5009C-3.59118e-06 38.8504 0.138699 39.1862 0.385891 39.4334L6.88499 45.9325C7.13218 46.1797 7.46795 46.3184 7.81746 46.3184H24.082C24.8099 46.3184 25.4004 45.7285 25.4004 45Z" fill="#4380A0"/>
<path id="Vector_8" d="M24.2592 35.8347C24.5167 36.0921 24.8538 36.2212 25.191 36.2212C25.5288 36.2212 25.8659 36.0921 26.1234 35.8347C26.6384 35.3197 26.6384 34.4854 26.1234 33.9704L17.9922 25.8392V8.54393C17.9922 7.81608 17.4017 7.22557 16.6738 7.22557C15.946 7.22557 15.3555 7.81608 15.3555 8.54393V26.385C15.3555 26.7352 15.4942 27.0703 15.7413 27.3175L24.2592 35.8347Z" fill="#4380A0"/>
<path id="Vector_9" d="M23.6961 52.6341C23.1812 52.1191 22.3462 52.1191 21.8312 52.6341L14.3358 60.1295C14.0886 60.3767 13.9499 60.7118 13.9499 61.062V78.0489L9.81903 82.1791C9.57184 82.4263 9.43314 82.7614 9.43314 83.1116V88.6816C9.43314 89.4102 10.0237 90 10.7515 90C11.4793 90 12.0699 89.4102 12.0699 88.6816V83.6575L16.2 79.5273C16.4472 79.2801 16.5866 78.945 16.5866 78.5948V61.6079L23.6961 54.4984C24.2104 53.9834 24.2104 53.1484 23.6961 52.6341Z" fill="#4380A0"/>
<path id="Vector_10" d="M33.1739 66.3039L24.3855 75.0922C24.1383 75.3394 23.9996 75.6752 23.9996 76.0247V88.6816C23.9996 89.4102 24.5895 90 25.318 90C26.0458 90 26.6364 89.4102 26.6364 88.6816V76.5706L35.0381 68.1688C35.5531 67.6538 35.5531 66.8188 35.0381 66.3039C34.5238 65.7896 33.6889 65.7896 33.1739 66.3039Z" fill="#4380A0"/>
<path id="Vector_11" d="M75.8881 75.4981V65.405C75.8881 65.0555 75.7494 64.7198 75.5015 64.4726L66.8504 55.8209C66.3354 55.3066 65.5005 55.3066 64.9855 55.8209C64.4712 56.3358 64.4712 57.1708 64.9855 57.6851L73.2513 65.9509V76.0439C73.2513 76.3934 73.39 76.7292 73.6372 76.9764L79.3336 82.6728V88.6816C79.3336 89.4102 79.9242 90 80.652 90C81.3805 90 81.9704 89.4102 81.9704 88.6816V82.1269C81.9704 81.7774 81.8317 81.4417 81.5845 81.1945L75.8881 75.4981Z" fill="#4380A0"/>
<path id="Vector_12" d="M56.8275 66.3039C56.3125 65.7896 55.4782 65.7896 54.9632 66.3039C54.4482 66.8188 54.4482 67.6538 54.9632 68.1688L62.7834 75.9883V88.6816C62.7834 89.4095 63.3733 90 64.1018 90C64.8296 90 65.4201 89.4095 65.4201 88.6816V75.4424C65.4201 75.0929 65.2814 74.7572 65.0336 74.51L56.8275 66.3039Z" fill="#4380A0"/>
</g>
<path id="Vector_13" d="M72.5098 45C72.5098 60.1934 60.1934 72.5098 45 72.5098C29.8066 72.5098 17.4902 60.1934 17.4902 45C17.4902 29.8066 29.8066 17.4902 45 17.4902C60.1934 17.4902 72.5098 29.8066 72.5098 45Z" fill="#FFB300"/>
<path id="Vector_14" d="M45 17.4902C44.1101 17.4902 43.2312 17.5342 42.3633 17.6166C56.3194 18.9439 67.2363 30.6965 67.2363 45C67.2363 59.3035 56.3194 71.0561 42.3633 72.3834C43.2312 72.4658 44.1101 72.5098 45 72.5098C60.1934 72.5098 72.5098 60.1934 72.5098 45C72.5098 29.8066 60.1934 17.4902 45 17.4902Z" fill="#FFA000"/>
<path id="Vector_15" d="M45 67.2363C32.7386 67.2363 22.7637 57.2614 22.7637 45C22.7637 32.7386 32.7386 22.7637 45 22.7637C57.2614 22.7637 67.2363 32.7386 67.2363 45C67.2363 57.2614 57.2614 67.2363 45 67.2363Z" fill="#FFD54F"/>
<path id="Vector_16" d="M45 21.4453C32.0121 21.4453 21.4453 32.0121 21.4453 45C21.4453 57.9879 32.0121 68.5547 45 68.5547C57.9879 68.5547 68.5547 57.9879 68.5547 45C68.5547 32.0121 57.9879 21.4453 45 21.4453ZM45 65.918C33.4657 65.918 24.082 56.5343 24.082 45C24.082 33.4657 33.4657 24.082 45 24.082C56.5343 24.082 65.918 33.4657 65.918 45C65.918 56.5343 56.5343 65.918 45 65.918Z" fill="#FFCA28"/>
<path id="Vector_17" d="M48.2959 86.7041C48.2959 88.5244 46.8203 90 45 90C43.1797 90 41.7041 88.5244 41.7041 86.7041C41.7041 84.8838 43.1797 83.4082 45 83.4082C46.8203 83.4082 48.2959 84.8838 48.2959 86.7041Z" fill="#80DEEA"/>
<path id="Vector_18" d="M48.2959 3.29589C48.2959 5.11619 46.8203 6.59179 45 6.59179C43.1797 6.59179 41.7041 5.11619 41.7041 3.29589C41.7041 1.4756 43.1797 -3.59118e-06 45 -3.59118e-06C46.8203 -3.59118e-06 48.2959 1.4756 48.2959 3.29589Z" fill="#80DEEA"/>
<path id="Vector_19" d="M62.0508 34.6989V55.3011C62.0508 55.5716 61.8942 55.8174 61.6498 55.9335L56.8563 58.2227L45.2973 63.742C45.2039 63.7859 45.1016 63.8086 45 63.8086C44.8984 63.8086 44.7961 63.7859 44.7027 63.742L28.3502 55.9335C28.1058 55.8174 27.9492 55.5716 27.9492 55.3011V34.6989C27.9492 34.5582 27.9911 34.425 28.0673 34.3124C28.1353 34.2066 28.2321 34.1228 28.3502 34.0665L40.1083 28.4518L44.6979 26.2601C44.8895 26.1681 45.1106 26.1681 45.3021 26.2601L61.6498 34.0665C61.7679 34.1228 61.8647 34.2066 61.9327 34.3124C62.0089 34.425 62.0508 34.5582 62.0508 34.6989Z" fill="#BA68C8"/>
<path id="Vector_20" d="M61.9327 34.3124L56.7773 36.7754H56.7753L40.1083 28.4525L44.6979 26.2601C44.8894 26.1687 45.1105 26.1687 45.3021 26.2601L61.6498 34.0665C61.7679 34.1228 61.8647 34.2073 61.9327 34.3124Z" fill="#AB47BC"/>
<path id="Vector_21" d="M45 42.3983V63.8086C44.8984 63.8086 44.7961 63.7859 44.7027 63.742L28.3502 55.9335C28.1058 55.8174 27.9492 55.5716 27.9492 55.3011V34.6989C27.9492 34.5582 27.9911 34.425 28.0673 34.3124L45 42.3983Z" fill="#80DEEA"/>
<path id="Vector_22" d="M62.0508 34.6989V55.3011C62.0508 55.5716 61.8942 55.8174 61.6498 55.9335L56.8563 58.2227L45.2973 63.742C45.2039 63.7859 45.1016 63.8086 45 63.8086V42.3983L56.7753 36.7754H56.7773L61.9327 34.3124C62.0089 34.425 62.0508 34.5582 62.0508 34.6989Z" fill="#F06292"/>
<path id="Vector_23" d="M62.0508 34.6989V55.3011C62.0508 55.5716 61.8942 55.8174 61.6498 55.9335L56.8563 58.2227L56.7773 36.7754L61.9327 34.3124C62.0089 34.425 62.0508 34.5582 62.0508 34.6989Z" fill="#EC407A"/>
</g>
<defs>
<clipPath id="clip0_0_82">
<rect width="90" height="90" fill="white"/>
</clipPath>
</defs>
</svg>
